<svg version="1.2" xmlns="http://www.w3.org/2000/svg" viewBox="0 0 842 595" width="842" height="595">
	<defs>
		<clipPath clipPathUnits="userSpaceOnUse" id="cp1">
			<path d="m751.93 556.94h-661.47v-518.97h661.47z"/>
		</clipPath>
	</defs>
	<style>
		.s0 { fill: #000000 } 
	</style>
	<g id="_Artboards_">
	</g>
	<g id="Layer 2">
		<g id="&lt;Clip Group&gt;" clip-path="url(#cp1)">
			<g id="&lt;Group&gt;">
				<g id="&lt;Group&gt;">
					<path id="&lt;Path&gt;" class="s0" d="m196.21 428.48c0.17 2.1 1.43 4.24 3.04 5.96q2.5-0.85 4.96-1.62c-1.42-1.82-2.45-3.94-2.63-6.05q-0.15-1.94 0.61-3.57-1.7 0.1-3.5 0.34l0.03 0.03q-2.75 1.92-2.51 4.91z"/>
					<path id="&lt;Path&gt;" class="s0" d="m235.62 400.11c2.06 0.19 4.11 0.45 6.12 0.7 6.97 0.89 13.56 1.73 20.09-0.26 0.9-0.37 7.96-3.23 19.73-8.01q4.74-1.92 10.45-4.24c3.77-1.59 7.81-3.41 12.15-5.3 8.65-3.82 18.49-7.97 28.96-13.08q7.91-3.75 16.43-7.79 8.41-4.28 17.34-8.83 4.46-2.27 9.03-4.61 4.51-2.48 9.12-5.01 4.6-2.54 9.31-5.12 1.67-0.92 3.36-1.85c-3.63-2.61-6.93-5.18-9.69-7.41-43.68 26.55-94.24 51.07-152.4 70.81z"/>
					<path id="&lt;Path&gt;" class="s0" d="m434.58 314.46q3.72-2.36 7.46-4.74c1.63-1.01 3.2-2.11 4.78-3.19q2.37-1.63 4.76-3.26 4.77-3.26 9.56-6.54l2.39-1.64 2.34-1.72 4.69-3.45q4.69-3.45 9.38-6.9c1.59-1.13 3.09-2.36 4.61-3.56l4.58-3.61q4.56-3.61 9.12-7.21 4.42-3.76 8.82-7.5 2.2-1.87 4.4-3.74l2.19-1.86 2.12-1.94q4.23-3.87 8.43-7.7c1.39-1.29 2.82-2.53 4.17-3.86q2.01-1.98 4.02-3.95 4.01-3.94 7.97-7.83 3.81-4.03 7.57-8 1.87-1.99 3.73-3.96c1.24-1.31 2.39-2.69 3.58-4.03q3.54-4.04 7.01-7.99c2.26-2.68 4.41-5.4 6.58-8.05q1.62-2 3.22-3.97c1.05-1.33 2.04-2.69 3.05-4.02q3-4.01 5.93-7.9 2.77-4 5.46-7.87c1.83-2.56 3.46-5.18 5.1-7.74 1.61-2.57 3.3-5.02 4.74-7.56q2.22-3.77 4.34-7.38c1.36-2.43 2.63-4.84 3.9-7.18 1.3-2.32 2.42-4.65 3.53-6.91 1.11-2.26 2.23-4.43 3.17-6.61 4.02-8.59 6.89-16.35 9.05-22.8 2.16-6.46 3.49-11.65 4.24-15.22 0.63-2.92 0.9-4.73 0.98-5.29q0.01-0.1 0.03-0.21c0 0-55.81 117.49-201.36 218.23 3.11 3.09 6.71 6.02 10.36 8.66z"/>
					<path id="&lt;Path&gt;" class="s0" d="m190.32 425.19q-0.21 1.71-0.48 3.36c-0.57 3.57-1.08 6.72-0.15 9.38q3.75-1.48 7.52-2.79c-1.61-1.91-2.8-4.2-2.99-6.49-0.15-1.71 0.26-3.25 1.18-4.59q-2.53 0.48-5.08 1.13z"/>
					<path id="&lt;Path&gt;" class="s0" d="m145.56 462.3q-0.02 0.14-0.03 0.29c-0.24 3.42 1.01 6.19 3.82 8.45q0.65-1.12 1-2.44 0.14-0.52 0.31-1.03c-2.16-1.26-4.02-2.89-5.1-5.27z"/>
					<path id="&lt;Path&gt;" class="s0" d="m146.59 458.05c0.19 3.83 2.07 6.01 4.76 7.64q0.7-1.63 1.69-3.2c-2.1-2.62-4.02-5.47-4.28-8.81q-1.33 2.19-2.17 4.37z"/>
					<path id="&lt;Path&gt;" class="s0" d="m169.77 442.98c0.59 1.32 1.45 2.36 2.48 3.11q3.91-2.2 8.15-4.18c-1.83-2.33-1.7-5.58-1.57-8.41 0.07-1.67 0.14-3.26-0.15-4.58-3.17 1.23-5.91 2.48-7.86 3.55l0.55 0.55c-2.47 2.46-3.12 6.56-1.6 9.96z"/>
					<path id="&lt;Path&gt;" class="s0" d="m162.5 438.41c-1.43 2.03-1.42 4.73 0.07 7.5 0.86 1.59 2.08 2.96 3.46 4.01q2.09-1.42 4.36-2.76-1.53-1.33-2.45-3.36c-1.4-3.14-1.26-6.79 0.21-9.69-1.65 1.11-3.59 2.58-5.65 4.3z"/>
					<path id="&lt;Path&gt;" class="s0" d="m188.24 425.75c-2.67 0.74-5.26 1.58-7.67 2.46 0.42 1.66 0.34 3.54 0.25 5.38-0.13 3.08-0.24 5.75 1.47 7.46q2.74-1.24 5.56-2.38c-1.14-3.21-0.56-6.86 0.01-10.44q0.2-1.23 0.38-2.48z"/>
					<path id="&lt;Path&gt;" class="s0" d="m136.78 470.57c-1.35-0.45-2.83-0.19-4.09 0.68 1.09 1.78 2.75 3.21 4.81 4l-0.19-0.22c1.04-0.89 1.53-1.83 1.37-2.66-0.16-0.78-0.88-1.47-1.9-1.8z"/>
					<path id="&lt;Path&gt;" class="s0" d="m625.49 88.25c-0.12 0.84-0.38 2.47-0.87 4.83-0.73 3.58-2.02 8.78-4.12 15.26-2.12 6.47-4.93 14.27-8.88 22.9-0.92 2.19-2.04 4.37-3.12 6.65-1.1 2.27-2.21 4.61-3.49 6.95-1.25 2.35-2.5 4.77-3.84 7.23q-2.1 3.63-4.3 7.42c-1.41 2.56-3.08 5.03-4.68 7.62-1.62 2.57-3.23 5.21-5.05 7.79q-2.66 3.9-5.42 7.93-2.89 3.93-5.87 7.97c-1 1.34-1.98 2.71-3.02 4.05q-1.59 1.99-3.2 4c-2.16 2.68-4.29 5.43-6.53 8.13q-3.45 3.99-6.97 8.07c-1.18 1.35-2.32 2.75-3.55 4.07q-1.85 1.99-3.71 4-3.74 4.01-7.53 8.08-3.94 3.94-7.93 7.92-2 1.99-4.01 4c-1.33 1.34-2.76 2.59-4.14 3.89q-4.18 3.89-8.39 7.8l-2.11 1.96-2.19 1.89q-2.18 1.89-4.37 3.78-4.39 3.79-8.8 7.59-4.54 3.65-9.09 7.31l-4.55 3.66c-1.53 1.21-3.02 2.46-4.6 3.61q-4.68 3.5-9.36 7l-4.68 3.49-2.33 1.75-2.39 1.67q-4.78 3.32-9.53 6.64-2.38 1.65-4.75 3.3c-1.58 1.1-3.15 2.21-4.77 3.23q-3.32 2.15-6.62 4.29c6.37 4.41 12.59 7.9 16.27 9.84 82.55-55.4 159.26-133.74 172.49-237.57z"/>
					<path id="&lt;Compound Path&gt;" fill-rule="evenodd" class="s0" d="m400.23 338.49c5.24 3.64 11 7.23 16.68 9.97-71.1 41.8-140.37 67.06-171.61 77.37q0.27 0.24 0.55 0.49c7.58 6.71 21.7 19.19 12.61 30.9-5.1 6.57-12.86 5.38-17.99 4.59-6.26-0.97-6.35-0.6-6.87 1.38-0.93 3.52 0.04 7.19 1.17 11.43 1.59 6.04 3.58 13.54-0.72 21.63-5.47 10.3-16.9 14.29-27.39 14.12-2.55-0.04-5.04-0.33-7.38-0.83-12.64-2.7-21.64-11.45-24.07-23.4-2.25-11.05-3.26-14.51-11.48-20.48-3.23-2.36-5.51-5.11-6.84-8.14q-1.48 1.58-2.68 3.23c-2.64-3.35-4.46-6.57-2.96-10.73 2.41-3.2 5.32-6.27 8.22-8.94-0.16 1.83 0.28 3.8 1.34 5.78 1.06 1.96 2.76 3.86 4.81 5.22 0.36 2.03 1.66 3.79 4 5.49 11.2 8.15 12.98 14.72 15.39 26.58 1.61 7.93 7.73 13.77 16.37 15.62 8.68 1.86 19.67-0.37 23.84-8.21 2.34-4.41 1.48-8.33-0.12-14.38-1.3-4.9-2.77-10.46-1.18-16.53 2.91-11.06 12.77-9.54 18.07-8.73 4.81 0.74 7.23 0.9 8.57-0.83 3.34-4.3-6.21-12.75-11.34-17.28-1.07-0.95-2.06-1.82-2.87-2.59q-0.95-0.89-1.95-1.9c-4.15 1.29-6.39 1.92-6.39 1.92-5.87 0.81-9.48-0.08-11.55-1.93-3.24 0.84-6.67 1.8-10.18 2.87-1.45-1.65-2.55-3.64-2.71-5.58q-0.15-1.96 0.99-3.47c2.51 0.02 4.79 0.32 6.69 1.01 2.66 0.95 4.35 2.54 5.18 4.85l1.88-0.68c-1.03-2.86-3.17-4.9-6.38-6.06-1.82-0.66-3.93-1-6.22-1.09l-0.76-1.11q-0.72 0.51-1.29 1.09c-12.44 0.22-28.94 6.7-34.63 10.04-1.82 1.07-4.68 3.1-7.84 5.75l-0.06-0.05q-0.08 0.11-0.15 0.22c-3.6 3.04-7.56 6.87-10.8 11.01l-0.25-0.12q-0.24 0.51-0.43 1.01c-3.26 4.35-5.66 9.02-5.97 13.45-0.29 4.1 1.28 7.54 4.64 10.22-1.78 1.98-4.33 3.17-7.04 3.22q-0.85 0-1.71-0.14c1.36-1.56 1.37-2.99 1.22-3.77-0.3-1.51-1.51-2.75-3.24-3.32-1.85-0.61-3.86-0.31-5.58 0.77-0.62-1.75-0.74-3.7-0.25-5.64 4.76-18.53 23.42-33.89 55.48-45.67 11.74-4.3 23.06-7.32 31.3-9.22q0.13-0.25 0.25-0.49c-4-7.48-6.43-15.47-5.01-22.65 0.59-3.04 2.06-6.72 5.34-10.09 0.33-6.98 6.14-12.49 13.18-12.38 7.17 0.12 12.9 6.03 12.79 13.21-0.12 7.18-6.03 12.91-13.21 12.79-3.02-0.05-5.77-1.13-7.95-2.89q-0.21 0.63-0.34 1.29c-0.87 4.4 0.78 9.84 3.63 15.29q0.42-0.14 0.84-0.28l0.07 1.18c4.36-0.24 8.7 0.32 13.29 0.9 4.32 0.55 8.73 1.11 13.18 0.96-5.7 5.19-11.1 12.67-12.86 18.49l3.82 1.16c2.22-7.31 11.27-17.96 17.95-21.13 0.71-0.29 7.77-3.22 19.69-8.17q4.73-1.97 10.42-4.33c3.77-1.63 7.82-3.49 12.16-5.42 8.66-3.91 18.52-8.16 28.98-13.37q7.9-3.82 16.42-7.94 8.39-4.37 17.32-9 4.45-2.32 9.03-4.7 4.49-2.53 9.1-5.11 4.6-2.57 9.3-5.21 2.24-1.25 4.49-2.52zm-175.18 44.63c1.47 1.58 3.86 2.3 6.37 2.34 2.48 0.04 5.07-0.59 7.01-1.72 2.62-1.54 3.69-3.76 2.95-6.1l-1.91 0.6c0.57 1.79-0.8 3.04-2.05 3.77-3.12 1.83-8.68 2.12-10.91-0.25-1.67-1.79-2.24-4.72-1.51-7.85 0.75-3.29 2.76-5.99 5.11-6.89 4.47-1.7 6.45 1.47 6.95 2.49 1.33 2.68 0.93 6.55-2.03 8.38-1.8 1.11-3.33 1.15-4.45 0.09-1.18-1.11-1.57-3.18-0.85-4.51 0.68-1.27 2.07-1.4 3.29-1.21 0.15 1.03-0.25 1.7-0.75 2.52l0.82 0.58 0.89 0.46c0.64-1.05 1.5-2.49 0.82-4.71l-0.16-0.55-0.56-0.13c-4-0.95-5.61 1.14-6.11 2.09-1.16 2.14-0.61 5.18 1.24 6.92 0.85 0.8 3.22 2.42 6.87 0.15 3.93-2.43 4.5-7.49 2.77-10.97-1.78-3.62-5.5-4.97-9.45-3.47-3 1.15-5.44 4.33-6.35 8.31-0.88 3.78-0.13 7.4 2 9.66z"/>
				</g>
				<g id="&lt;Group&gt;">
					<path id="&lt;Path&gt;" class="s0" d="m644.42 429.69l0.03-0.03q-1.79-0.27-3.49-0.4 0.73 1.65 0.55 3.58c-0.21 2.12-1.27 4.22-2.73 6.01q2.45 0.81 4.94 1.7c1.64-1.69 2.93-3.82 3.14-5.91q0.29-2.99-2.44-4.95z"/>
					<path id="&lt;Path&gt;" class="s0" d="m223.93 92.4c0.7 3.58 1.94 8.79 3.99 15.28 2.06 6.48 4.81 14.29 8.69 22.94 0.9 2.2 1.99 4.39 3.06 6.67 1.08 2.27 2.16 4.62 3.42 6.96 1.23 2.36 2.47 4.79 3.79 7.25q2.06 3.64 4.22 7.44c1.39 2.57 3.04 5.05 4.61 7.64 1.6 2.58 3.19 5.23 4.98 7.81q2.63 3.92 5.34 7.96 2.86 3.94 5.8 8c0.99 1.35 1.96 2.72 2.98 4.07q1.57 1.99 3.16 4.01c2.12 2.69 4.23 5.45 6.45 8.16q3.4 4.01 6.88 8.1c1.16 1.36 2.29 2.76 3.51 4.1q1.83 1.99 3.67 4.01 3.69 4.03 7.44 8.12 3.9 3.95 7.85 7.96 1.97 2 3.95 4.02c1.33 1.34 2.74 2.6 4.1 3.91q4.14 3.91 8.31 7.84l2.09 1.97 2.16 1.9q2.17 1.9 4.34 3.81 4.34 3.81 8.7 7.64 4.5 3.67 9.01 7.36l4.51 3.68c1.51 1.22 2.99 2.48 4.55 3.63q4.64 3.53 9.28 7.05l4.63 3.53 2.31 1.76 2.37 1.68q4.73 3.35 9.45 6.69 2.36 1.67 4.7 3.33c1.57 1.11 3.12 2.24 4.73 3.27q9.59 6.31 18.98 12.51 9.59 5.88 18.91 11.6c3.08 1.95 6.23 3.72 9.34 5.49q4.66 2.66 9.22 5.27 4.57 2.6 9.03 5.15 4.54 2.41 8.97 4.76 8.85 4.7 17.18 9.11 8.46 4.18 16.31 8.05c10.39 5.28 20.16 9.58 28.75 13.55 4.31 1.95 8.31 3.84 12.06 5.49q5.68 2.41 10.39 4.41c11.69 4.96 18.69 7.94 19.59 8.32 6.49 2.1 13.1 1.36 20.09 0.59 2.01-0.23 4.06-0.45 6.12-0.61-286.34-102.36-384.89-318.75-384.89-318.75q0.01 0.1 0.03 0.2c0.06 0.57 0.3 2.38 0.89 5.31z"/>
					<path id="&lt;Path&gt;" class="s0" d="m653.22 434.81q-0.24-1.65-0.42-3.36-2.54-0.7-5.07-1.22c0.9 1.35 1.29 2.91 1.12 4.61-0.23 2.29-1.46 4.56-3.1 6.44q3.75 1.37 7.47 2.91c0.97-2.64 0.52-5.8 0-9.38z"/>
					<path id="&lt;Path&gt;" class="s0" d="m696.98 469.55q-0.01-0.14-0.02-0.28c-1.12 2.35-3.01 3.96-5.19 5.19q0.16 0.51 0.3 1.03 0.32 1.32 0.96 2.46c2.84-2.22 4.14-4.97 3.95-8.4z"/>
					<path id="&lt;Path&gt;" class="s0" d="m695.99 465q-0.8-2.19-2.09-4.41c-0.32 3.34-2.29 6.17-4.42 8.75q0.96 1.58 1.64 3.22c2.71-1.58 4.62-3.73 4.87-7.56z"/>
					<path id="&lt;Path&gt;" class="s0" d="m673.06 449.56c1.58-3.37 0.98-7.48-1.44-9.98l0.56-0.55c-1.93-1.1-4.65-2.39-7.81-3.67-0.3 1.31-0.26 2.9-0.21 4.58 0.08 2.83 0.16 6.08-1.71 8.38q4.21 2.05 8.08 4.31c1.04-0.73 1.92-1.76 2.53-3.07z"/>
					<path id="&lt;Path&gt;" class="s0" d="m674.87 450.41c-0.62 1.34-1.48 2.45-2.5 3.33q2.25 1.37 4.31 2.82c1.4-1.02 2.65-2.38 3.53-3.95 1.54-2.75 1.59-5.45 0.19-7.5-2.03-1.76-3.95-3.25-5.58-4.39 1.43 2.92 1.51 6.57 0.05 9.69z"/>
					<path id="&lt;Path&gt;" class="s0" d="m662.16 439.99c-0.06-1.83-0.11-3.72 0.33-5.37-2.39-0.91-4.97-1.8-7.62-2.59q0.15 1.26 0.33 2.49c0.52 3.59 1.04 7.25-0.15 10.44q2.8 1.19 5.52 2.47c1.74-1.68 1.68-4.35 1.59-7.44z"/>
					<path id="&lt;Path&gt;" class="s0" d="m705.6 477.67c-1.02 0.32-1.76 1-1.92 1.78-0.18 0.82 0.29 1.77 1.32 2.67l-0.19 0.22c2.06-0.75 3.75-2.16 4.87-3.92-1.25-0.88-2.72-1.17-4.08-0.75z"/>
					<path id="&lt;Compound Path&gt;" fill-rule="evenodd" class="s0" d="m702.88 482.81q-0.86 0.13-1.71 0.12c-2.72-0.09-5.25-1.33-6.99-3.34 3.41-2.62 5.02-6.04 4.8-10.14-0.24-4.44-2.56-9.14-5.76-13.55q-0.18-0.5-0.41-1.01l-0.25 0.12c-3.17-4.2-7.07-8.09-10.62-11.19q-0.07-0.11-0.14-0.22l-0.06 0.05c-3.12-2.7-5.95-4.78-7.76-5.88-5.63-3.43-22.02-10.17-34.46-10.59q-0.56-0.59-1.27-1.11l-0.78 1.09c-2.29 0.06-4.4 0.37-6.23 1-3.23 1.11-5.41 3.11-6.48 5.96l1.87 0.7c0.86-2.29 2.58-3.85 5.26-4.77 1.9-0.65 4.19-0.92 6.7-0.89q1.12 1.52 0.93 3.48c-0.19 1.94-1.31 3.91-2.79 5.54-3.5-1.13-6.91-2.15-10.14-3.04-2.1 1.82-5.72 2.65-11.58 1.75 0 0-2.23-0.67-6.35-2.02q-1.02 0.99-1.98 1.86c-0.83 0.76-1.83 1.61-2.92 2.55-5.2 4.45-14.88 12.74-11.61 17.09 1.31 1.76 3.73 1.63 8.56 0.97 5.3-0.73 15.19-2.08 17.92 9.02 1.5 6.1-0.07 11.63-1.44 16.51-1.7 6.02-2.63 9.93-0.36 14.37 4.05 7.91 15 10.32 23.71 8.59 8.67-1.71 14.88-7.45 16.62-15.35 2.6-11.82 4.49-18.36 15.82-26.33 2.36-1.66 3.69-3.4 4.08-5.43 2.07-1.32 3.8-3.2 4.89-5.13 1.1-1.97 1.56-3.93 1.43-5.76 2.86 2.72 5.72 5.83 8.08 9.07 1.43 4.18-0.43 7.37-3.13 10.68q-1.17-1.67-2.63-3.27c-1.38 3.01-3.7 5.72-6.97 8.02-8.31 5.85-9.38 9.28-11.8 20.3-2.63 11.91-11.77 20.51-24.45 23.01-2.35 0.47-4.84 0.71-7.39 0.71-10.49 0-21.85-4.18-27.16-14.56-4.17-8.15-2.06-15.63-0.37-21.63 1.2-4.23 2.23-7.88 1.36-11.41-0.49-2-0.58-2.36-6.85-1.5-5.15 0.71-12.93 1.77-17.92-4.87-8.9-11.86 5.42-24.12 13.11-30.7q0.28-0.24 0.56-0.48c-72.61-25.27-351.59-135.45-374.73-343.64 0.11 0.85 0.34 2.48 0.8 4.85 0.67 3.59 1.87 8.81 3.87 15.32 2.01 6.51 4.7 14.35 8.51 23.04 0.89 2.21 1.96 4.41 3.01 6.7 1.06 2.28 2.13 4.65 3.37 7 1.22 2.37 2.43 4.82 3.74 7.29q2.04 3.67 4.17 7.5c1.37 2.57 3.01 5.07 4.56 7.69 1.58 2.59 3.15 5.26 4.92 7.87q2.6 3.94 5.29 8.01 2.83 3.98 5.75 8.07c0.98 1.35 1.94 2.74 2.95 4.1q1.56 2.01 3.14 4.05c2.11 2.71 4.2 5.49 6.4 8.23q3.38 4.05 6.83 8.18c1.16 1.37 2.28 2.78 3.49 4.13q1.82 2.02 3.65 4.06 3.67 4.07 7.4 8.2 3.87 3.99 7.8 8.04 1.96 2.03 3.94 4.07c1.31 1.35 2.72 2.63 4.08 3.96q4.11 3.94 8.27 7.93l2.08 1.99 2.15 1.92q2.15 1.92 4.31 3.85 4.33 3.86 8.67 7.74 4.48 3.72 8.98 7.45l4.49 3.73c1.51 1.24 2.98 2.51 4.54 3.68q4.63 3.58 9.25 7.15l4.62 3.57 2.3 1.78 2.36 1.71q4.73 3.4 9.43 6.79 2.35 1.69 4.69 3.38c1.57 1.13 3.12 2.27 4.72 3.31q9.57 6.42 18.94 12.71 9.57 5.98 18.88 11.79c3.07 1.98 6.21 3.78 9.32 5.58q4.65 2.71 9.21 5.36 4.56 2.65 9.02 5.25 4.53 2.45 8.95 4.84 8.85 4.78 17.17 9.28 8.45 4.26 16.29 8.2c10.38 5.38 20.17 9.79 28.77 13.84 4.31 2 8.32 3.93 12.07 5.61q5.65 2.46 10.34 4.49c11.84 5.15 18.86 8.19 19.56 8.5 6.63 3.27 15.51 14.06 17.61 21.41l3.84-1.1c-1.67-5.85-6.95-13.41-12.56-18.69 4.45 0.22 8.86-0.27 13.19-0.75 4.6-0.51 8.95-0.99 13.31-0.68l0.08-1.18q0.42 0.14 0.84 0.29c2.93-5.41 4.67-10.82 3.87-15.24q-0.12-0.66-0.32-1.28c-2.21 1.72-4.97 2.76-7.99 2.76-7.18 0-13-5.82-13-13 0-7.18 5.82-13 13-13 7.04 0 12.76 5.6 12.98 12.58 3.22 3.43 4.63 7.13 5.18 10.17 1.29 7.21-1.26 15.16-5.38 22.57q0.12 0.24 0.24 0.49c8.21 2.04 19.48 5.23 31.15 9.73 31.86 12.29 50.28 27.95 54.74 46.55 0.46 1.94 0.31 3.89-0.35 5.64-1.69-1.11-3.69-1.44-5.56-0.86-1.74 0.54-2.97 1.76-3.29 3.27-0.16 0.77-0.18 2.2 1.16 3.78zm-81.98-103.62c-0.85-3.99-3.23-7.21-6.21-8.4-3.93-1.57-7.67-0.27-9.51 3.31-1.78 3.46-1.3 8.52 2.59 11.02 3.62 2.32 6.02 0.74 6.88-0.05 1.88-1.7 2.47-4.73 1.35-6.9-0.49-0.95-2.06-3.07-6.08-2.18l-0.56 0.12-0.17 0.54c-0.72 2.21 0.12 3.67 0.74 4.72l0.9-0.43 0.83-0.57c-0.48-0.83-0.88-1.51-0.71-2.54 1.23-0.17 2.61-0.01 3.27 1.26 0.7 1.35 0.28 3.42-0.92 4.51-1.14 1.03-2.67 0.98-4.45-0.16-2.93-1.89-3.27-5.76-1.89-8.42 0.51-1.01 2.55-4.15 6.99-2.37 2.33 0.93 4.29 3.66 5 6.96 0.67 3.14 0.06 6.07-1.64 7.83-2.27 2.34-7.83 1.95-10.92 0.07-1.23-0.75-2.58-2.02-1.99-3.8l-1.89-0.63c-0.79 2.33 0.25 4.56 2.84 6.14 1.93 1.17 4.51 1.84 6.99 1.84 2.51 0 4.91-0.69 6.41-2.23 2.16-2.24 2.97-5.84 2.15-9.64z"/>
				</g>
			</g>
		</g>
	</g>
</svg>